<?xml version="1.0" encoding="utf-8"?>
<!-- Generator: Adobe Illustrator 19.0.0, SVG Export Plug-In . SVG Version: 6.00 Build 0)  -->
<!DOCTYPE svg PUBLIC "-//W3C//DTD SVG 1.1//EN" "http://www.w3.org/Graphics/SVG/1.1/DTD/svg11.dtd">
<svg version="1.1" id="Layer_1" xmlns="http://www.w3.org/2000/svg" xmlns:xlink="http://www.w3.org/1999/xlink" x="0px" y="0px"
	 viewBox="0 0 406 279" enable-background="new 0 0 406 279" xml:space="preserve">
<g id="XMLID_88_">
	<path id="XMLID_39_" fill="#4A96C4" d="M166.4,221.7c-2,2.4-4.4,4.3-7.2,5.8c-2.8,1.4-6,2.1-9.4,2.1c-2.9,0-5.7-0.5-8.3-1.6
		c-2.6-1.1-4.8-2.5-6.7-4.4c-1.9-1.9-3.4-4-4.5-6.5c-1.1-2.5-1.7-5.2-1.7-8.1s0.6-5.6,1.7-8.1c1.1-2.5,2.6-4.7,4.5-6.6
		c1.9-1.9,4.2-3.3,6.7-4.4c2.6-1.1,5.3-1.6,8.3-1.6c3.4,0,6.5,0.7,9.4,2.1c2.8,1.4,5.2,3.3,7.1,5.6l-5.3,5.5
		c-1.2-1.8-2.8-3.2-4.7-4.2c-1.9-1.1-4.1-1.6-6.4-1.6c-1.9,0-3.6,0.4-5.2,1.1c-1.6,0.7-3.1,1.7-4.3,2.9c-1.2,1.2-2.2,2.6-2.9,4.2
		c-0.7,1.6-1.1,3.3-1.1,5.1c0,1.8,0.4,3.5,1.1,5.1c0.7,1.6,1.7,3,2.9,4.2c1.2,1.2,2.7,2.2,4.3,2.9c1.6,0.7,3.4,1.1,5.2,1.1
		c2.5,0,4.6-0.6,6.5-1.7c1.9-1.1,3.5-2.6,4.7-4.4L166.4,221.7z"/>
	<path id="XMLID_41_" fill="#4A96C4" d="M209.4,208.9c0,2.8-0.6,5.5-1.7,8c-1.1,2.5-2.6,4.7-4.5,6.6c-1.9,1.9-4.2,3.3-6.7,4.4
		c-2.5,1.1-5.3,1.6-8.1,1.6c-2.9,0-5.6-0.5-8.2-1.6c-2.6-1.1-4.8-2.5-6.7-4.4c-1.9-1.9-3.4-4-4.5-6.5c-1.1-2.5-1.7-5.2-1.7-8.1
		s0.6-5.6,1.7-8.1c1.1-2.5,2.6-4.7,4.5-6.6c1.9-1.9,4.2-3.3,6.7-4.4c2.6-1.1,5.3-1.6,8.2-1.6c2.9,0,5.6,0.5,8.1,1.6
		c2.5,1.1,4.8,2.5,6.7,4.4c1.9,1.9,3.4,4.1,4.5,6.6C208.8,203.4,209.4,206.1,209.4,208.9z M201.7,208.9c0-1.8-0.3-3.5-1-5.1
		c-0.7-1.6-1.7-3-2.9-4.2c-1.2-1.2-2.6-2.2-4.3-2.9c-1.6-0.7-3.4-1.1-5.2-1.1c-1.9,0-3.6,0.4-5.2,1.1c-1.6,0.7-3,1.7-4.3,2.9
		c-1.2,1.2-2.2,2.6-2.9,4.2c-0.7,1.6-1,3.3-1,5.1c0,1.8,0.3,3.5,1,5.1c0.7,1.6,1.7,3,2.9,4.2c1.2,1.2,2.6,2.2,4.3,2.9
		c1.6,0.7,3.4,1.1,5.2,1.1c1.8,0,3.6-0.4,5.2-1.1c1.6-0.7,3-1.7,4.3-2.9c1.2-1.2,2.2-2.6,2.9-4.2
		C201.4,212.4,201.7,210.7,201.7,208.9z"/>
	<path id="XMLID_44_" fill="#4A96C4" d="M251.7,221.7c-2,2.4-4.4,4.3-7.2,5.8c-2.8,1.4-6,2.1-9.4,2.1c-2.9,0-5.7-0.5-8.3-1.6
		c-2.6-1.1-4.8-2.5-6.7-4.4c-1.9-1.9-3.4-4-4.5-6.5c-1.1-2.5-1.7-5.2-1.7-8.1s0.6-5.6,1.7-8.1c1.1-2.5,2.6-4.7,4.5-6.6
		c1.9-1.9,4.2-3.3,6.7-4.4c2.6-1.1,5.3-1.6,8.3-1.6c3.4,0,6.5,0.7,9.4,2.1c2.8,1.4,5.2,3.3,7.1,5.6l-5.3,5.5
		c-1.2-1.8-2.8-3.2-4.7-4.2c-1.9-1.1-4.1-1.6-6.4-1.6c-1.9,0-3.6,0.4-5.2,1.1c-1.6,0.7-3.1,1.7-4.3,2.9c-1.2,1.2-2.2,2.6-2.9,4.2
		c-0.7,1.6-1.1,3.3-1.1,5.1c0,1.8,0.4,3.5,1.1,5.1c0.7,1.6,1.7,3,2.9,4.2c1.2,1.2,2.7,2.2,4.3,2.9c1.6,0.7,3.4,1.1,5.2,1.1
		c2.5,0,4.6-0.6,6.5-1.7c1.9-1.1,3.5-2.6,4.7-4.4L251.7,221.7z"/>
	<path id="XMLID_46_" fill="#4A96C4" d="M289.4,228.8h-10l-15.9-17.6v17.6h-7.7v-39.7h7.7v17.7l16.2-17.7h9.1l-17.9,19.5
		L289.4,228.8z"/>
	<path id="XMLID_49_" fill="#4A96C4" d="M320.1,196h-11v32.8h-7.8V196h-11v-6.9h29.8V196z"/>
	<path id="XMLID_51_" fill="#4A96C4" d="M358.7,228.8h-8.4l-3.7-7.9h-19.3l-3.7,7.9h-8.4l18.8-39.7h6L358.7,228.8z M343.6,214.5
		l-6.6-14.3l-6.7,14.3H343.6z"/>
	<path id="XMLID_54_" fill="#4A96C4" d="M370.4,228.8h-7.7v-39.7h7.7V228.8z"/>
	<path id="XMLID_56_" fill="#4A96C4" d="M404.7,228.8h-26.9v-39.7h7.9v32.2h19V228.8z"/>
</g>
<g id="XMLID_86_">
	<path id="XMLID_30_" fill="#303030" d="M34.4,228.2h-7.6L8.9,200.4v27.9H1.4v-39.7H10l16.8,25.9v-25.9h7.6V228.2z"/>
	<path id="XMLID_32_" fill="#303030" d="M64.2,228.2H57v-1.5c-1.3,0.9-2.6,1.5-4,1.8c-1.4,0.3-2.9,0.5-4.3,0.5
		c-1.4,0-2.7-0.2-3.8-0.6c-1.1-0.4-2.1-1-2.9-1.8c-0.8-0.8-1.5-1.7-1.9-2.8c-0.4-1.1-0.7-2.2-0.7-3.5c0-1.6,0.4-3,1.1-4.2
		c0.7-1.2,1.7-2.2,2.9-3c1.2-0.8,2.7-1.4,4.3-1.8c1.6-0.4,3.4-0.6,5.3-0.6h4.1c0-1.7-0.5-3-1.6-4c-1.1-1-2.7-1.5-4.7-1.5
		c-1,0-2,0.2-3.1,0.5c-1.1,0.4-2.1,1-3.2,2l-4.2-4.3c1.5-1.5,3.3-2.6,5.3-3.4c2-0.8,4.1-1.2,6.2-1.2c2,0,3.8,0.3,5.3,0.9
		c1.6,0.6,2.8,1.4,3.8,2.4c1.2,1.3,2.1,2.7,2.6,4.2c0.5,1.6,0.8,3.5,0.8,6V228.2z M57,221.1v-5.3h-3.3c-1,0-1.9,0.1-2.8,0.2
		c-0.9,0.1-1.6,0.4-2.3,0.7c-0.6,0.3-1.2,0.7-1.5,1.2c-0.4,0.5-0.6,1.1-0.6,1.8c0,1,0.4,1.8,1.2,2.4c0.8,0.6,1.8,0.9,3,0.9
		c1.1,0,2.1-0.2,3.2-0.5C54.9,222.2,55.9,221.7,57,221.1z"/>
	<path id="XMLID_35_" fill="#303030" d="M90.7,220.2c0,1.4-0.3,2.7-1,3.8c-0.7,1.1-1.5,2-2.6,2.8c-1.1,0.7-2.3,1.3-3.6,1.7
		c-1.3,0.4-2.6,0.6-3.9,0.6c-2.2,0-4.2-0.4-6.1-1.2c-1.8-0.8-3.5-2.1-4.9-3.9l4.3-4.4c0.9,1.1,1.9,1.9,3,2.6
		c1.1,0.6,2.3,0.9,3.6,0.9c1.1,0,2.1-0.2,2.8-0.6c0.7-0.4,1.1-1,1.1-1.9c0-0.9-0.5-1.6-1.6-2.2c-1.1-0.6-2.6-1.1-4.5-1.7
		c-1.1-0.3-2.2-0.8-3.3-1.3c-1.1-0.5-2-1.1-2.8-1.9c-0.8-0.7-1.5-1.6-2-2.6c-0.5-1-0.7-2.1-0.7-3.3c0-1.4,0.3-2.6,1-3.8
		c0.6-1.1,1.5-2,2.5-2.8c1-0.7,2.2-1.3,3.6-1.7c1.3-0.4,2.7-0.6,4-0.6c4.4,0,8,1.7,10.8,5l-4.3,4.3c-0.8-1-1.8-1.8-2.8-2.4
		c-1.1-0.6-2.2-0.9-3.5-0.9c-0.4,0-0.9,0.1-1.4,0.2c-0.5,0.1-0.9,0.3-1.3,0.5c-0.4,0.2-0.8,0.5-1,0.8c-0.3,0.3-0.4,0.7-0.4,1.2
		c0,0.8,0.5,1.4,1.5,2c1,0.6,2.5,1.1,4.3,1.7c1.2,0.4,2.4,0.8,3.5,1.4c1.1,0.6,2.1,1.2,2.9,2c0.8,0.7,1.5,1.6,2,2.5
		C90.5,217.9,90.7,219,90.7,220.2z"/>
	<path id="XMLID_37_" fill="#303030" d="M121.1,228.2H114V211c0-1-0.2-1.9-0.5-2.7s-0.7-1.4-1.2-1.9c-0.5-0.5-1.1-0.9-1.8-1.1
		c-0.7-0.2-1.4-0.4-2.1-0.4c-1.1,0-2.1,0.2-3.1,0.5c-1,0.3-2,0.8-2.9,1.4v21.5h-7.2V187h7.2l0,14.1c1.1-0.8,2.3-1.4,3.7-1.8
		c1.4-0.4,2.7-0.6,4-0.6c1.5,0,2.9,0.2,4.2,0.7c1.3,0.5,2.5,1.2,3.5,2.2c1,1,1.8,2.2,2.4,3.7c0.6,1.5,0.9,3.2,0.9,5.2V228.2z"/>
</g>
<g id="XMLID_85_">
	<path id="XMLID_92_" fill="#4A96C4" d="M211.2,134.9c24.4-10.9,41.5-35.3,41.5-63.8c0-38.5-31.2-69.8-69.8-69.8
		s-69.8,31.2-69.8,69.8c0,28.9,17.6,53.7,42.6,64.3c3.1,1.3,13.4,4.3,25.2,7.7v-42.4l-20.7-22.9l-24.4-27h48.8h21.9L221.1,30
		l4.4,3.3l-14.3,17.4h22.2l-24.4,27l-19.4,21.4v46.4c18.3,5.1,37,10.1,37,10.1S202.5,138.7,211.2,134.9z"/>
</g>
<g id="XMLID_66_">
	<defs>
		<polygon id="XMLID_84_" points="184.6,104.7 160.2,77.7 135.8,50.7 184.6,50.7 233.4,50.7 209,77.7 		"/>
	</defs>
	<clipPath id="XMLID_93_">
		<use xlink:href="#XMLID_84_"  overflow="visible"/>
	</clipPath>
	<g id="XMLID_71_" clip-path="url(#XMLID_93_)">
		<polygon id="XMLID_87_" fill="#93C953" points="-88.6,-139 -45.3,-200.5 -40.9,-197.1 		"/>
	</g>
</g>
<g id="XMLID_57_">
	
		<ellipse id="XMLID_83_" transform="matrix(0.8911 0.4538 -0.4538 0.8911 50.8338 -82.7803)" fill="#93C953" cx="197.9" cy="64.5" rx="5.5" ry="7.1"/>
</g>
<g id="XMLID_47_">
	
		<ellipse id="XMLID_82_" transform="matrix(0.8911 0.4538 -0.4538 0.8911 55.5473 -77.1237)" fill="#93C953" cx="188.5" cy="77.2" rx="5.5" ry="7.1"/>
</g>
<g id="XMLID_67_">
	<path id="XMLID_2_" d="M173.2,262.3c0,0.5-0.1,1-0.3,1.5c-0.2,0.5-0.5,0.9-0.8,1.2c-0.4,0.3-0.8,0.6-1.2,0.8
		c-0.5,0.2-1,0.3-1.5,0.3c-0.6,0-1.1-0.1-1.6-0.4c-0.4-0.3-0.7-0.6-0.9-1.1c0,0.1,0,0.2,0,0.3c0,0.1,0,0.2,0,0.3l-0.5,3.9h-0.9
		l1.2-9.8h0.9c0,0,0,0.1,0,0.2c0,0.1,0,0.2,0,0.4c0,0.1,0,0.3,0,0.4c0,0.1,0,0.3,0,0.4c0.3-0.4,0.6-0.8,1.1-1.1
		c0.5-0.3,1.1-0.5,1.7-0.5c0.5,0,0.9,0.1,1.2,0.2c0.4,0.1,0.7,0.4,1,0.6c0.3,0.3,0.5,0.6,0.6,1C173.1,261.4,173.2,261.8,173.2,262.3
		z M172.2,262.4c0-0.7-0.2-1.2-0.6-1.6c-0.4-0.4-0.9-0.6-1.6-0.6c-0.4,0-0.8,0.1-1.1,0.2c-0.4,0.1-0.7,0.3-0.9,0.6s-0.5,0.6-0.6,0.9
		c-0.2,0.3-0.2,0.7-0.2,1.1c0,0.3,0.1,0.6,0.2,0.9c0.1,0.3,0.3,0.5,0.5,0.7c0.2,0.2,0.4,0.4,0.7,0.5c0.3,0.1,0.6,0.2,0.9,0.2
		c0.4,0,0.8-0.1,1.1-0.2c0.3-0.1,0.7-0.4,0.9-0.6c0.3-0.3,0.5-0.6,0.6-0.9C172.1,263.2,172.2,262.8,172.2,262.4z"/>
	<path id="XMLID_5_" d="M178.6,260.4c-0.3,0-0.7,0.1-1,0.2c-0.3,0.1-0.6,0.3-0.9,0.4c-0.3,0.2-0.5,0.4-0.6,0.7
		c-0.2,0.3-0.3,0.6-0.3,0.9l-0.4,3.4h-0.9l0.8-6.6h0.8l-0.1,1.7c0.2-0.3,0.4-0.5,0.6-0.8c0.2-0.2,0.5-0.4,0.8-0.6
		c0.3-0.2,0.5-0.3,0.8-0.4c0.3-0.1,0.5-0.1,0.8-0.1L178.6,260.4z"/>
	<path id="XMLID_7_" d="M184.7,265.2c-0.4,0.3-0.8,0.5-1.2,0.7s-0.9,0.2-1.4,0.2c-0.5,0-0.9-0.1-1.2-0.2s-0.7-0.4-1-0.7
		c-0.3-0.3-0.5-0.6-0.6-1c-0.2-0.4-0.2-0.8-0.2-1.2c0-0.5,0.1-1,0.3-1.5c0.2-0.5,0.5-0.9,0.9-1.2c0.4-0.3,0.8-0.6,1.3-0.8
		c0.5-0.2,1-0.3,1.5-0.3c0.7,0,1.3,0.2,1.8,0.7c0.5,0.4,0.8,1,1,1.7c-0.4,0.1-0.8,0.3-1.3,0.5c-0.5,0.2-1,0.4-1.5,0.6
		c-0.5,0.2-1,0.4-1.5,0.6c-0.5,0.2-1,0.4-1.4,0.5c0.1,0.5,0.4,0.8,0.8,1.1c0.4,0.3,0.8,0.4,1.4,0.4c0.4,0,0.7-0.1,1-0.2
		c0.3-0.1,0.6-0.3,0.9-0.5L184.7,265.2z M184.7,261.3c-0.1-0.4-0.4-0.7-0.7-0.9c-0.3-0.2-0.7-0.3-1.1-0.3c-0.4,0-0.8,0.1-1.1,0.2
		c-0.3,0.1-0.7,0.4-0.9,0.6c-0.3,0.3-0.5,0.6-0.6,0.9c-0.2,0.3-0.2,0.7-0.2,1v0.2c0.4-0.1,0.7-0.3,1.2-0.4c0.4-0.2,0.8-0.3,1.2-0.5
		s0.8-0.3,1.2-0.5C184,261.6,184.3,261.5,184.7,261.3z"/>
	<path id="XMLID_10_" d="M190.9,260l-0.6,0.6c-0.1-0.1-0.3-0.2-0.5-0.3c-0.2-0.1-0.5-0.2-0.8-0.2c-0.1,0-0.3,0-0.4,0
		c-0.1,0-0.3,0.1-0.4,0.2c-0.1,0.1-0.2,0.2-0.3,0.3c-0.1,0.1-0.1,0.3-0.1,0.5c0,0.2,0.1,0.4,0.2,0.5c0.1,0.1,0.3,0.3,0.5,0.4
		c0.2,0.1,0.4,0.2,0.7,0.3c0.2,0.1,0.5,0.2,0.7,0.3c0.2,0.1,0.4,0.3,0.5,0.5c0.1,0.2,0.2,0.5,0.2,0.8c0,0.3-0.1,0.6-0.2,0.8
		c-0.1,0.3-0.3,0.5-0.5,0.7c-0.2,0.2-0.5,0.4-0.8,0.5c-0.3,0.1-0.6,0.2-1,0.2s-0.8-0.1-1.1-0.2c-0.4-0.1-0.7-0.3-0.9-0.6
		c0.1,0,0.1-0.1,0.2-0.2c0.1-0.1,0.1-0.1,0.2-0.2c0.1-0.1,0.1-0.1,0.2-0.2c0,0,0.1-0.1,0.1-0.1c0,0.1,0.1,0.1,0.2,0.2
		c0.1,0.1,0.2,0.1,0.3,0.2s0.3,0.1,0.4,0.2c0.2,0,0.3,0.1,0.5,0.1c0.1,0,0.3,0,0.5-0.1c0.2,0,0.3-0.1,0.5-0.2
		c0.1-0.1,0.3-0.2,0.3-0.4s0.1-0.3,0.1-0.5c0-0.2-0.1-0.4-0.2-0.5c-0.1-0.1-0.3-0.3-0.5-0.4c-0.2-0.1-0.4-0.2-0.7-0.3
		c-0.2-0.1-0.5-0.2-0.7-0.3c-0.2-0.1-0.4-0.3-0.5-0.5c-0.1-0.2-0.2-0.5-0.2-0.8c0-0.4,0.1-0.7,0.2-0.9c0.1-0.3,0.3-0.5,0.5-0.6
		s0.5-0.3,0.7-0.4c0.3-0.1,0.5-0.1,0.8-0.1c0.3,0,0.6,0.1,0.9,0.2C190.4,259.6,190.7,259.8,190.9,260z"/>
	<path id="XMLID_12_" d="M197.7,265.2c-0.4,0.3-0.8,0.5-1.2,0.7c-0.5,0.2-0.9,0.2-1.4,0.2c-0.5,0-0.9-0.1-1.2-0.2s-0.7-0.4-1-0.7
		c-0.3-0.3-0.5-0.6-0.6-1c-0.2-0.4-0.2-0.8-0.2-1.2c0-0.5,0.1-1,0.3-1.5c0.2-0.5,0.5-0.9,0.9-1.2c0.4-0.3,0.8-0.6,1.3-0.8
		c0.5-0.2,1-0.3,1.5-0.3c0.7,0,1.3,0.2,1.8,0.7c0.5,0.4,0.8,1,1,1.7c-0.4,0.1-0.8,0.3-1.3,0.5c-0.5,0.2-1,0.4-1.5,0.6
		c-0.5,0.2-1,0.4-1.5,0.6c-0.5,0.2-1,0.4-1.4,0.5c0.1,0.5,0.4,0.8,0.8,1.1c0.4,0.3,0.8,0.4,1.4,0.4c0.4,0,0.7-0.1,1-0.2
		c0.3-0.1,0.6-0.3,0.9-0.5L197.7,265.2z M197.7,261.3c-0.1-0.4-0.4-0.7-0.7-0.9c-0.3-0.2-0.7-0.3-1.1-0.3c-0.4,0-0.8,0.1-1.1,0.2
		c-0.3,0.1-0.7,0.4-0.9,0.6c-0.3,0.3-0.5,0.6-0.6,0.9c-0.2,0.3-0.2,0.7-0.2,1v0.2c0.4-0.1,0.7-0.3,1.2-0.4c0.4-0.2,0.8-0.3,1.2-0.5
		s0.8-0.3,1.2-0.5C197,261.6,197.3,261.5,197.7,261.3z"/>
	<path id="XMLID_15_" d="M200.5,259.4h0.8l-0.1,1.7c0.3-0.6,0.7-1,1.2-1.3c0.5-0.3,1.1-0.5,1.8-0.5c0.7,0,1.1,0.2,1.5,0.5
		c0.3,0.4,0.5,0.8,0.4,1.4l-0.6,4.8h-0.9l0.5-4.5c0-0.4-0.1-0.7-0.3-1c-0.2-0.3-0.6-0.4-1.1-0.4c-0.4,0-0.7,0.1-1,0.2
		c-0.3,0.1-0.6,0.3-0.8,0.5c-0.2,0.2-0.5,0.5-0.6,0.7c-0.2,0.3-0.3,0.6-0.3,0.9l-0.4,3.5h-0.9L200.5,259.4z"/>
	<path id="XMLID_17_" d="M209.3,256.5h0.9l-0.4,3h2l-0.1,0.8h-2L209,266h-0.9l0.7-5.7h-1.3l0.1-0.8h1.3L209.3,256.5z"/>
	<path id="XMLID_19_" d="M217.7,265.2c-0.4,0.3-0.8,0.5-1.2,0.7c-0.5,0.2-0.9,0.2-1.4,0.2c-0.5,0-0.9-0.1-1.2-0.2s-0.7-0.4-1-0.7
		c-0.3-0.3-0.5-0.6-0.6-1c-0.2-0.4-0.2-0.8-0.2-1.2c0-0.5,0.1-1,0.3-1.5c0.2-0.5,0.5-0.9,0.9-1.2c0.4-0.3,0.8-0.6,1.3-0.8
		c0.5-0.2,1-0.3,1.5-0.3c0.7,0,1.3,0.2,1.8,0.7c0.5,0.4,0.8,1,1,1.7c-0.4,0.1-0.8,0.3-1.3,0.5c-0.5,0.2-1,0.4-1.5,0.6
		c-0.5,0.2-1,0.4-1.5,0.6c-0.5,0.2-1,0.4-1.4,0.5c0.1,0.5,0.4,0.8,0.8,1.1c0.4,0.3,0.8,0.4,1.4,0.4c0.4,0,0.7-0.1,1-0.2
		c0.3-0.1,0.6-0.3,0.9-0.5L217.7,265.2z M217.7,261.3c-0.1-0.4-0.4-0.7-0.7-0.9c-0.3-0.2-0.7-0.3-1.1-0.3c-0.4,0-0.8,0.1-1.1,0.2
		c-0.3,0.1-0.7,0.4-0.9,0.6c-0.3,0.3-0.5,0.6-0.6,0.9c-0.2,0.3-0.2,0.7-0.2,1v0.2c0.4-0.1,0.7-0.3,1.2-0.4c0.4-0.2,0.8-0.3,1.2-0.5
		s0.8-0.3,1.2-0.5C217,261.6,217.3,261.5,217.7,261.3z"/>
	<path id="XMLID_22_" d="M219.6,263.1c0-0.5,0.1-1,0.3-1.5c0.2-0.5,0.5-0.9,0.8-1.2c0.4-0.3,0.8-0.6,1.2-0.8c0.5-0.2,1-0.3,1.5-0.3
		c0.3,0,0.7,0,0.9,0.1c0.3,0.1,0.5,0.2,0.7,0.3c0.2,0.1,0.4,0.3,0.5,0.5c0.1,0.2,0.2,0.4,0.3,0.6l0.9-7.5h0.9l-1.6,12.7h-0.9
		l0.1-0.7c0-0.1,0-0.2,0.1-0.4s0-0.2,0-0.3c-0.3,0.4-0.7,0.8-1.2,1.1c-0.5,0.3-1.1,0.4-1.7,0.4c-0.5,0-0.9-0.1-1.2-0.2
		s-0.7-0.4-0.9-0.7c-0.3-0.3-0.5-0.6-0.6-1C219.7,263.9,219.6,263.5,219.6,263.1z M220.5,263c0,0.3,0.1,0.6,0.2,0.9
		c0.1,0.3,0.3,0.5,0.5,0.7c0.2,0.2,0.4,0.4,0.7,0.5c0.3,0.1,0.6,0.2,0.9,0.2c0.4,0,0.8-0.1,1.1-0.2c0.4-0.1,0.7-0.4,0.9-0.6
		c0.3-0.3,0.5-0.6,0.6-0.9c0.2-0.3,0.2-0.7,0.2-1.1c0-0.3-0.1-0.6-0.2-0.9c-0.1-0.3-0.3-0.5-0.5-0.7c-0.2-0.2-0.4-0.4-0.7-0.5
		s-0.6-0.2-0.9-0.2c-0.4,0-0.8,0.1-1.1,0.2c-0.4,0.1-0.7,0.3-0.9,0.6c-0.3,0.3-0.5,0.6-0.6,0.9C220.6,262.2,220.5,262.6,220.5,263z"
		/>
	<path id="XMLID_25_" d="M239.9,262.3c0,0.5-0.1,1-0.3,1.5c-0.2,0.5-0.5,0.9-0.8,1.2s-0.8,0.6-1.2,0.8c-0.5,0.2-1,0.3-1.5,0.3
		c-0.6,0-1.1-0.1-1.6-0.4c-0.4-0.3-0.7-0.6-0.9-1.1c0,0.1,0,0.2,0,0.3c0,0.1,0,0.2,0,0.3l-0.1,0.7h-0.9l1.6-12.7h0.9l-0.9,7.5
		c0.3-0.4,0.6-0.8,1.1-1.1c0.5-0.3,1.1-0.5,1.7-0.5c0.5,0,0.9,0.1,1.2,0.2c0.4,0.1,0.7,0.4,1,0.6c0.3,0.3,0.5,0.6,0.6,1
		C239.8,261.4,239.9,261.8,239.9,262.3z M238.9,262.4c0-0.3-0.1-0.6-0.2-0.9c-0.1-0.3-0.3-0.5-0.4-0.7c-0.2-0.2-0.4-0.4-0.7-0.5
		c-0.3-0.1-0.6-0.2-0.9-0.2c-0.4,0-0.8,0.1-1.1,0.2c-0.4,0.1-0.7,0.3-0.9,0.6c-0.3,0.3-0.5,0.6-0.6,0.9c-0.2,0.3-0.2,0.7-0.2,1.1
		c0,0.3,0.1,0.6,0.2,0.9c0.1,0.3,0.3,0.5,0.5,0.7c0.2,0.2,0.4,0.4,0.7,0.5c0.3,0.1,0.6,0.2,0.9,0.2c0.4,0,0.8-0.1,1.1-0.2
		c0.3-0.1,0.6-0.4,0.9-0.6c0.3-0.3,0.5-0.6,0.6-0.9C238.9,263.2,238.9,262.8,238.9,262.4z"/>
	<path id="XMLID_28_" d="M242.1,269.2h-1c0.2-0.3,0.3-0.6,0.5-0.8c0.1-0.3,0.3-0.5,0.4-0.8c0.1-0.3,0.3-0.5,0.5-0.8
		c0.2-0.3,0.3-0.6,0.6-1c-0.4-1-0.8-2.1-1.1-3.2c-0.3-1.1-0.7-2.2-1.1-3.2h1c0.3,0.7,0.5,1.3,0.6,1.8s0.3,1,0.5,1.4
		c0.1,0.4,0.3,0.8,0.4,1.2c0.1,0.4,0.2,0.7,0.3,1.1c0.2-0.4,0.4-0.7,0.6-1.1c0.2-0.4,0.4-0.8,0.7-1.2c0.2-0.4,0.5-0.9,0.8-1.4
		c0.3-0.5,0.7-1.1,1.1-1.8h1L242.1,269.2z"/>
</g>
<g id="XMLID_123_">
	<g id="XMLID_122_">
		<polygon id="XMLID_81_" fill="#4D4D4D" points="283.1,256.8 279.8,256.8 279.8,255.7 287.8,255.7 287.8,256.8 284.5,256.8 
			284.5,266.4 283.1,266.4 		"/>
	</g>
	<path id="XMLID_188_" fill="#4D4D4D" d="M288.6,262.8c0,1.9,1.2,2.7,2.6,2.7c1,0,1.6-0.2,2.1-0.4l0.3,1c-0.5,0.2-1.4,0.5-2.6,0.5
		c-2.4,0-3.8-1.6-3.8-3.9c0-2.3,1.4-4.1,3.6-4.1c2.5,0,3.2,2.2,3.2,3.6c0,0.3,0,0.5,0,0.7H288.6z M292.7,261.8
		c0-0.9-0.4-2.3-1.9-2.3c-1.4,0-2,1.3-2.2,2.3H292.7z"/>
	<path id="XMLID_80_" fill="#4D4D4D" d="M301.3,266.1c-0.4,0.2-1.2,0.4-2.2,0.4c-2.3,0-3.8-1.6-3.8-3.9c0-2.4,1.6-4.1,4.1-4.1
		c0.8,0,1.6,0.2,1.9,0.4L301,260c-0.3-0.2-0.9-0.4-1.6-0.4c-1.8,0-2.7,1.3-2.7,2.9c0,1.8,1.1,2.9,2.7,2.9c0.8,0,1.3-0.2,1.7-0.4
		L301.3,266.1z"/>
	<path id="XMLID_79_" fill="#4D4D4D" d="M302.9,255.1h1.4v4.8h0c0.2-0.4,0.6-0.8,1-1c0.4-0.2,0.9-0.4,1.4-0.4c1,0,2.7,0.6,2.7,3.3
		v4.6h-1.4V262c0-1.2-0.5-2.3-1.8-2.3c-0.9,0-1.6,0.6-1.9,1.4c-0.1,0.2-0.1,0.4-0.1,0.7v4.7h-1.4V255.1z"/>
	<path id="XMLID_78_" fill="#4D4D4D" d="M311.7,260.8c0-0.8,0-1.4-0.1-2.1h1.2l0.1,1.3h0c0.4-0.7,1.3-1.4,2.5-1.4
		c1.1,0,2.7,0.6,2.7,3.3v4.6h-1.4V262c0-1.2-0.5-2.3-1.8-2.3c-0.9,0-1.6,0.7-1.9,1.4c-0.1,0.2-0.1,0.4-0.1,0.7v4.6h-1.4V260.8z"/>
	<path id="XMLID_178_" fill="#4D4D4D" d="M327.6,262.5c0,2.9-2,4.1-3.8,4.1c-2.1,0-3.7-1.5-3.7-4c0-2.6,1.7-4.1,3.8-4.1
		C326.1,258.5,327.6,260.1,327.6,262.5 M321.5,262.6c0,1.7,1,3,2.3,3c1.3,0,2.3-1.3,2.3-3c0-1.3-0.7-2.9-2.3-2.9
		C322.2,259.6,321.5,261.1,321.5,262.6"/>
	<polygon id="XMLID_77_" fill="#4D4D4D" points="329.3,255.1 330.7,255.1 330.7,258.4 330.7,262 330.7,266.4 329.3,266.4 
		329.3,264.3 	"/>
	<path id="XMLID_172_" fill="#4D4D4D" d="M340.1,262.5c0,2.9-2,4.1-3.8,4.1c-2.1,0-3.7-1.5-3.7-4c0-2.6,1.7-4.1,3.8-4.1
		C338.6,258.5,340.1,260.1,340.1,262.5 M334,262.6c0,1.7,1,3,2.3,3c1.3,0,2.3-1.3,2.3-3c0-1.3-0.7-2.9-2.3-2.9
		C334.7,259.6,334,261.1,334,262.6"/>
	<path id="XMLID_168_" fill="#4D4D4D" d="M348.4,265.3c0,1.8-0.4,2.9-1.1,3.5c-0.8,0.7-1.8,0.9-2.8,0.9c-0.9,0-1.9-0.2-2.6-0.6
		l0.4-1.1c0.5,0.3,1.3,0.6,2.3,0.6c1.4,0,2.5-0.7,2.5-2.7v-0.8h0c-0.4,0.7-1.3,1.3-2.5,1.3c-1.9,0-3.3-1.6-3.3-3.8
		c0-2.6,1.7-4.1,3.5-4.1c1.3,0,2.1,0.7,2.4,1.3h0l0-1.2h1.2c0,0.5-0.1,1.2-0.1,2.1V265.3z M347,261.7c0-0.2,0-0.4-0.1-0.6
		c-0.3-0.8-0.9-1.5-2-1.5c-1.3,0-2.3,1.1-2.3,2.9c0,1.5,0.8,2.8,2.3,2.8c0.9,0,1.7-0.5,1.9-1.4c0.1-0.2,0.1-0.5,0.1-0.7V261.7z"/>
	<path id="XMLID_72_" fill="#4D4D4D" d="M351.3,258.7l1.7,4.6c0.2,0.5,0.4,1.1,0.5,1.6h0c0.1-0.5,0.3-1.1,0.5-1.6l1.5-4.5h1.5
		l-2.1,5.5c-1,2.6-1.7,4-2.6,4.8c-0.7,0.6-1.4,0.8-1.7,0.9l-0.4-1.2c0.4-0.1,0.8-0.3,1.2-0.7c0.4-0.3,0.8-0.8,1.2-1.6
		c0.1-0.1,0.1-0.3,0.1-0.3c0-0.1,0-0.2-0.1-0.4l-2.8-7.1H351.3z"/>
	<path id="XMLID_161_" fill="#93C953" d="M360,263l-1.1,3.4h-1.4l3.7-10.7h1.7l3.7,10.7H365l-1.1-3.4H360z M363.6,261.9l-1.1-3.1
		c-0.2-0.7-0.4-1.3-0.6-2h0c-0.2,0.6-0.3,1.3-0.5,1.9l-1.1,3.1H363.6z"/>
	<path id="XMLID_156_" fill="#93C953" d="M374.5,255.1v9.3c0,0.7,0,1.5,0.1,2h-1.2l-0.1-1.3h0c-0.4,0.9-1.3,1.5-2.6,1.5
		c-1.9,0-3.3-1.6-3.3-3.9c0-2.6,1.6-4.1,3.5-4.1c1.2,0,2,0.6,2.3,1.2h0v-4.6H374.5z M373.1,261.8c0-0.2,0-0.4-0.1-0.6
		c-0.2-0.9-1-1.6-2-1.6c-1.5,0-2.3,1.3-2.3,3c0,1.6,0.8,2.9,2.3,2.9c0.9,0,1.8-0.6,2.1-1.7c0-0.2,0.1-0.4,0.1-0.6V261.8z"/>
	<path id="XMLID_68_" fill="#93C953" d="M377.3,258.7l1.5,4.3c0.3,0.7,0.5,1.4,0.6,2h0c0.2-0.6,0.4-1.3,0.7-2l1.5-4.3h1.5l-3,7.7
		h-1.3l-2.9-7.7H377.3z"/>
	<path id="XMLID_148_" fill="#93C953" d="M386,256.5c0,0.5-0.3,0.9-0.9,0.9c-0.5,0-0.8-0.4-0.8-0.9c0-0.5,0.4-0.9,0.9-0.9
		C385.7,255.7,386,256,386,256.5 M384.5,258.7h1.4v7.7h-1.4V258.7z"/>
	<path id="XMLID_65_" fill="#93C953" d="M393.7,266.1c-0.4,0.2-1.2,0.4-2.2,0.4c-2.3,0-3.8-1.6-3.8-3.9c0-2.4,1.6-4.1,4.1-4.1
		c0.8,0,1.6,0.2,1.9,0.4l-0.3,1.1c-0.3-0.2-0.9-0.4-1.6-0.4c-1.8,0-2.7,1.3-2.7,2.9c0,1.8,1.1,2.9,2.7,2.9c0.8,0,1.3-0.2,1.7-0.4
		L393.7,266.1z"/>
	<path id="XMLID_140_" fill="#93C953" d="M396,262.8c0,1.9,1.2,2.7,2.6,2.7c1,0,1.6-0.2,2.1-0.4l0.3,1c-0.5,0.2-1.4,0.5-2.6,0.5
		c-2.4,0-3.8-1.6-3.8-3.9c0-2.3,1.4-4.1,3.6-4.1c2.5,0,3.2,2.2,3.2,3.6c0,0.3,0,0.5,0,0.7H396z M400.1,261.8c0-0.9-0.4-2.3-1.9-2.3
		c-1.4,0-2,1.3-2.2,2.3H400.1z"/>
	<rect id="XMLID_64_" x="255.2" y="228.2" display="none" fill="none" width="149" height="50.8"/>
	<g id="XMLID_89_">
		<rect id="XMLID_63_" x="258.4" y="254.8" fill="#93C953" width="3.9" height="11.4"/>
	</g>
	<g id="XMLID_76_">
		<path id="XMLID_62_" fill="#93C953" d="M271.9,256.9c-0.2-0.8-0.4-1.6-0.6-2.3h-0.1c-0.2,0.8-0.4,1.5-0.5,2.3
			c-0.2,0.8-0.4,1.5-0.6,2.3l-0.3,1.3h3l-0.3-1.3C272.3,258.4,272.1,257.7,271.9,256.9"/>
	</g>
	<g id="XMLID_75_">
		<polygon id="XMLID_61_" fill="#93C953" points="258.4,246.7 258.4,252.1 269.5,252.1 270.4,252.1 273.3,252.1 277.7,266.2 
			277.9,266.2 277.9,246.7 		"/>
	</g>
	<g id="XMLID_74_">
		<polygon id="XMLID_60_" fill="#93C953" points="265.5,264.7 268.6,254.8 265.5,254.8 		"/>
	</g>
	<g id="XMLID_73_">
		<polygon id="XMLID_59_" fill="#93C953" points="268.3,266.2 274.3,266.2 273.5,262.9 269.2,262.9 		"/>
	</g>
	<g id="XMLID_69_">
		<rect id="XMLID_1_" x="255.2" y="228.2" fill="none" width="149" height="50.8"/>
	</g>
</g>
</svg>
